<?xml version="1.0" encoding="utf-8"?>
<svg viewBox="-152.768 -213.631 1034.885 949.174" xmlns="http://www.w3.org/2000/svg">
  <g transform="matrix(0.75, 0, 0, 0.75, -148.35464919670358, -206.42565007286214)">
    <svg viewBox="0 0 396 247" data-background-color="#1b1128" preserveAspectRatio="xMidYMid meet" height="1247" width="2000" xmlns="http://www.w3.org/2000/svg">
      <g id="tight-bounds" transform="matrix(1,0,0,1,0.2400000000000091,-0.09999999999999432)">
        <svg viewBox="0 0 395.52 247.2" height="247.2" width="395.52">
          <rect width="395.52" height="247.2" fill="url(#810c4b75-90c8-4b25-913d-d25bbe222679)" mask="url(#e613c614-7df9-41b4-b0ea-8a4ce9f3e83b)" data-fill-palette-color="tertiary"/>
          <g>
            <svg/>
          </g>
          <g>
            <svg viewBox="0 0 395.52 247.2" height="247.2" width="395.52">
              <g transform="matrix(1,0,0,1,125.76093014354066,47.215199999999996)">
                <svg viewBox="0 0 143.99813971291866 152.7696" height="152.7696" width="143.99813971291866">
                  <g>
                    <svg viewBox="0 0 143.99813971291866 152.7696" height="152.7696" width="143.99813971291866">
                      <g>
                        <svg viewBox="0 0 143.99813971291866 152.7696" height="152.7696" width="143.99813971291866">
                          <g>
                            <svg viewBox="0 0 143.99813971291866 152.7696" height="152.7696" width="143.99813971291866">
                              <g id="textblocktransform">
                                <svg viewBox="0 0 143.99813971291866 152.7696" height="152.7696" width="143.99813971291866" id="textblock">
                                  <g>
                                    <svg viewBox="0 0 143.99813971291866 152.7696" height="152.7696" width="143.99813971291866">
                                      <g transform="matrix(1,0,0,1,0,0)">
                                        <svg width="143.99813971291866" viewBox="3.6 -31.35 29.549999999999997 31.35" height="152.7696" data-palette-color="url(#8ee85fdf-1057-44fe-9490-c8a94762f2be)"/>
                                      </g>
                                    </svg>
                                  </g>
                                </svg>
                              </g>
                            </svg>
                          </g>
                        </svg>
                      </g>
                    </svg>
                  </g>
                </svg>
              </g>
              <g>
                <path d="M0 123.6c0-68.262 55.338-123.6 123.6-123.6 30.402 0 58.24 10.976 79.768 29.183l-11.147 0c-19.26-14.022-42.974-22.294-68.621-22.295-64.458 0-116.712 52.254-116.712 116.712 0 64.458 52.254 116.712 116.712 116.712 25.647 0 49.361-8.272 68.621-22.295l11.147 0c-21.528 18.206-49.366 29.183-79.768 29.183-68.262 0-123.6-55.338-123.6-123.6z" fill="url(#810c4b75-90c8-4b25-913d-d25bbe222679)" stroke="transparent" data-fill-palette-color="tertiary"/>
              </g>
            </svg>
          </g>
          <mask id="041d3b56-b884-4ef6-a3c8-8590924d50b7">
            <g id="SvgjsG6289">
              <svg viewBox="0 0 395.52 247.2" height="247.2" width="395.52">
                <g>
                  <svg/>
                </g>
                <g>
                  <svg viewBox="0 0 395.52 247.2" height="247.2" width="395.52">
                    <g transform="matrix(1,0,0,1,125.76093014354066,47.215199999999996)">
                      <svg viewBox="0 0 143.99813971291866 152.7696" height="152.7696" width="143.99813971291866">
                        <g>
                          <svg viewBox="0 0 143.99813971291866 152.7696" height="152.7696" width="143.99813971291866">
                            <g>
                              <svg viewBox="0 0 143.99813971291866 152.7696" height="152.7696" width="143.99813971291866">
                                <g>
                                  <svg viewBox="0 0 143.99813971291866 152.7696" height="152.7696" width="143.99813971291866">
                                    <g id="SvgjsG6288">
                                      <svg viewBox="0 0 143.99813971291866 152.7696" height="152.7696" width="143.99813971291866" id="SvgjsSvg6287">
                                        <g>
                                          <svg viewBox="0 0 143.99813971291866 152.7696" height="152.7696" width="143.99813971291866">
                                            <g transform="matrix(1,0,0,1,0,0)">
                                              <svg width="143.99813971291866" viewBox="3.6 -31.35 29.549999999999997 31.35" height="152.7696" data-palette-color="url(#8ee85fdf-1057-44fe-9490-c8a94762f2be)">
                                                <path d="M28-31.35L33.15-31.35 33.15 0 29.15 0 29.15-24.7 20.2-6.25 16.55-6.25 7.6-24.75 7.6 0 3.6 0 3.6-31.35 8.95-31.35 18.45-11.4 28-31.35Z" opacity="1" transform="matrix(1,0,0,1,0,0)" fill="white" class="wordmark-text-0" id="SvgjsPath6286"/>
                                              </svg>
                                            </g>
                                          </svg>
                                        </g>
                                      </svg>
                                    </g>
                                  </svg>
                                </g>
                              </svg>
                            </g>
                          </svg>
                        </g>
                      </svg>
                    </g>
                    <g>
                      <path d="M0 123.6c0-68.262 55.338-123.6 123.6-123.6 30.402 0 58.24 10.976 79.768 29.183l-11.147 0c-19.26-14.022-42.974-22.294-68.621-22.295-64.458 0-116.712 52.254-116.712 116.712 0 64.458 52.254 116.712 116.712 116.712 25.647 0 49.361-8.272 68.621-22.295l11.147 0c-21.528 18.206-49.366 29.183-79.768 29.183-68.262 0-123.6-55.338-123.6-123.6z" fill="black" stroke="transparent"/>
                    </g>
                  </svg>
                </g>
              </svg>
              <rect width="395.52" height="247.2" fill="black" stroke="none" visibility="hidden"/>
            </g>
          </mask>
          <linearGradient x1="0" x2="1" y1="0.548" y2="0.55" id="8ee85fdf-1057-44fe-9490-c8a94762f2be">
            <stop stop-color="#ff6cab" offset="0"/>
            <stop stop-color="#7366ff" offset="1"/>
          </linearGradient>
          <rect width="395.52" height="247.2" fill="url(#8ee85fdf-1057-44fe-9490-c8a94762f2be)" mask="url(#041d3b56-b884-4ef6-a3c8-8590924d50b7)" data-fill-palette-color="primary"/>
          <mask id="e613c614-7df9-41b4-b0ea-8a4ce9f3e83b">
            <g id="SvgjsG6312">
              <svg viewBox="0 0 395.52 247.2" height="247.2" width="395.52">
                <g>
                  <svg/>
                </g>
                <g>
                  <svg viewBox="0 0 395.52 247.2" height="247.2" width="395.52">
                    <g transform="matrix(1,0,0,1,125.76093014354066,47.215199999999996)">
                      <svg viewBox="0 0 143.99813971291866 152.7696" height="152.7696" width="143.99813971291866">
                        <g>
                          <svg viewBox="0 0 143.99813971291866 152.7696" height="152.7696" width="143.99813971291866">
                            <g>
                              <svg viewBox="0 0 143.99813971291866 152.7696" height="152.7696" width="143.99813971291866">
                                <g>
                                  <svg viewBox="0 0 143.99813971291866 152.7696" height="152.7696" width="143.99813971291866">
                                    <g id="SvgjsG6311">
                                      <svg viewBox="0 0 143.99813971291866 152.7696" height="152.7696" width="143.99813971291866" id="SvgjsSvg6310">
                                        <g>
                                          <svg viewBox="0 0 143.99813971291866 152.7696" height="152.7696" width="143.99813971291866">
                                            <g transform="matrix(1,0,0,1,0,0)">
                                              <svg width="143.99813971291866" viewBox="3.6 -31.35 29.549999999999997 31.35" height="152.7696" data-palette-color="url(#8ee85fdf-1057-44fe-9490-c8a94762f2be)"/>
                                            </g>
                                          </svg>
                                        </g>
                                      </svg>
                                    </g>
                                  </svg>
                                </g>
                              </svg>
                            </g>
                          </svg>
                        </g>
                      </svg>
                    </g>
                    <g>
                      <path d="M0 123.6c0-68.262 55.338-123.6 123.6-123.6 30.402 0 58.24 10.976 79.768 29.183l-11.147 0c-19.26-14.022-42.974-22.294-68.621-22.295-64.458 0-116.712 52.254-116.712 116.712 0 64.458 52.254 116.712 116.712 116.712 25.647 0 49.361-8.272 68.621-22.295l11.147 0c-21.528 18.206-49.366 29.183-79.768 29.183-68.262 0-123.6-55.338-123.6-123.6z" fill="white" stroke="transparent"/>
                    </g>
                  </svg>
                </g>
              </svg>
              <rect width="395.52" height="247.2" fill="black" stroke="none" visibility="hidden"/>
            </g>
          </mask>
          <linearGradient x1="0" x2="1" y1="0.5" y2="0.5" id="810c4b75-90c8-4b25-913d-d25bbe222679">
            <stop stop-color="#f00b51" offset="0"/>
            <stop stop-color="#730062" offset="1"/>
          </linearGradient>
        </svg>
        <rect width="395.52" height="247.2" fill="none" stroke="none" visibility="hidden"/>
      </g>
    </svg>
  </g>
  <circle style="fill: rgb(216, 216, 216); stroke: rgb(0, 0, 0);" transform="matrix(1, 0, 0, 1, 0, -1.1368683772161603e-13)"/>
</svg>